{
  "accessors": [
    {
      "bufferView": 2,
      "componentType": 5126,
      "count": 47216,
      "max": [
        1.0917439460754395,
        1.0917439460754395,
        0.5401110053062439
      ],
      "min": [
        -1.0917439460754395,
        -1.0917439460754395,
        -0.5360350012779236
      ],
      "type": "VEC3"
    },
    {
      "bufferView": 2,
      "byteOffset": 566592,
      "componentType": 5126,
      "count": 47216,
      "max": [
        1.0,
        1.0,
        1.0
      ],
      "min": [
        -1.0,
        -0.9999898672103882,
        -0.999998927116394
      ],
      "type": "VEC3"
    },
    {
      "bufferView": 1,
      "componentType": 5126,
      "count": 47216,
      "max": [
        1.0,
        1.0
      ],
      "min": [
        -0.0074640000239014626,
        0.0
      ],
      "type": "VEC2"
    },
    {
      "bufferView": 0,
      "componentType": 5125,
      "count": 134076,
      "type": "SCALAR"
    },
    {
      "bufferView": 2,
      "byteOffset": 1133184,
      "componentType": 5126,
      "count": 15,
      "max": [
        -0.046904001384973526,
        -0.7649400234222412,
        0.5401110053062439
      ],
      "min": [
        -0.11153999716043472,
        -0.8418560028076172,
        0.5401099920272827
      ],
      "type": "VEC3"
    },
    {
      "bufferView": 2,
      "byteOffset": 1133364,
      "componentType": 5126,
      "count": 15,
      "max": [
        9.999999747378752e-05,
        -0.0,
        1.0
      ],
      "min": [
        -0.00019999995129182935,
        -0.0006999998004175723,
        0.9999997615814209
      ],
      "type": "VEC3"
    },
    {
      "bufferView": 1,
      "byteOffset": 377728,
      "componentType": 5126,
      "count": 15,
      "max": [
        0.2389259934425354,
        0.024188000708818436
      ],
      "min": [
        0.2163739949464798,
        0.021966999396681786
      ],
      "type": "VEC2"
    },
    {
      "bufferView": 0,
      "byteOffset": 536304,
      "componentType": 5125,
      "count": 48,
      "type": "SCALAR"
    }
  ],
  "asset": {
    "extras": {
      "author": "aniljaco (https://sketchfab.com/aniljaco)",
      "license": "CC-BY-4.0 (http://creativecommons.org/licenses/by/4.0/)",
      "source": "https://sketchfab.com/3d-models/control-knob-anil-935138b1041d484daec6c4c764cd4ba7",
      "title": "Control Knob - Anil"
    },
    "generator": "Sketchfab-12.66.0",
    "version": "2.0"
  },
  "bufferViews": [
    {
      "buffer": 0,
      "byteLength": 536496,
      "name": "floatBufferViews",
      "target": 34963
    },
    {
      "buffer": 0,
      "byteLength": 377848,
      "byteOffset": 536496,
      "byteStride": 8,
      "name": "floatBufferViews",
      "target": 34962
    },
    {
      "buffer": 0,
      "byteLength": 1133544,
      "byteOffset": 914344,
      "byteStride": 12,
      "name": "floatBufferViews",
      "target": 34962
    }
  ],
  "buffers": [
    {
      "byteLength": 2047888,
      "uri": "scene.bin"
    }
  ],
  "materials": [
    {
      "doubleSided": true,
      "name": "Body",
      "pbrMetallicRoughness": {
        "roughnessFactor": 0.16460888444750915
      }
    },
    {
      "doubleSided": true,
      "name": "indicator",
      "pbrMetallicRoughness": {
        "baseColorFactor": [
          0.0,
          0.0,
          0.0,
          1.0
        ],
        "metallicFactor": 0.0,
        "roughnessFactor": 0.6
      }
    }
  ],
  "meshes": [
    {
      "name": "Object_0",
      "primitives": [
        {
          "attributes": {
            "NORMAL": 1,
            "POSITION": 0,
            "TEXCOORD_0": 2
          },
          "indices": 3,
          "material": 0,
          "mode": 4
        }
      ]
    },
    {
      "name": "Object_1",
      "primitives": [
        {
          "attributes": {
            "NORMAL": 5,
            "POSITION": 4,
            "TEXCOORD_0": 6
          },
          "indices": 7,
          "material": 1,
          "mode": 4
        }
      ]
    }
  ],
  "nodes": [
    {
      "children": [
        1
      ],
      "matrix": [
        1.0,
        0.0,
        0.0,
        0.0,
        0.0,
        2.220446049250313e-16,
        -1.0,
        0.0,
        0.0,
        1.0,
        2.220446049250313e-16,
        0.0,
        0.0,
        0.0,
        0.0,
        1.0
      ],
      "name": "Sketchfab_model"
    },
    {
      "children": [
        2,
        3
      ],
      "name": "knob-02.obj.cleaner.materialmerger.gles"
    },
    {
      "mesh": 0,
      "name": "Object_2"
    },
    {
      "mesh": 1,
      "name": "Object_3"
    }
  ],
  "scene": 0,
  "scenes": [
    {
      "name": "Sketchfab_Scene",
      "nodes": [
        0
      ]
    }
  ]
}
